<?xml version="1.0" encoding="UTF-8" standalone="no"?>
<svg
   xmlns:dc="http://purl.org/dc/elements/1.1/"
   xmlns:cc="http://creativecommons.org/ns#"
   xmlns:rdf="http://www.w3.org/1999/02/22-rdf-syntax-ns#"
   xmlns:svg="http://www.w3.org/2000/svg"
   xmlns="http://www.w3.org/2000/svg"
   viewBox="0 0 400 161.33333"
   height="161.33333"
   width="400"
   xml:space="preserve"
   id="svg2"
   version="1.1"><metadata
     id="metadata8"><rdf:RDF><cc:Work
         rdf:about=""><dc:format>image/svg+xml</dc:format><dc:type
           rdf:resource="http://purl.org/dc/dcmitype/StillImage" /></cc:Work></rdf:RDF></metadata><defs
     id="defs6" /><g
     transform="matrix(1.3333333,0,0,-1.3333333,0,161.33333)"
     id="g10"><g
       transform="scale(0.1)"
       id="g12"><path
         id="path14"
         style="fill:#cf6894;fill-opacity:1;fill-rule:evenodd;stroke:none"
         d="m 1216.41,1074.41 c -4.14,1.41 -9.85,4.85 -17.11,10.39 -6.96,5.55 -13.01,9.73 -18.21,12.5 -3.43,1.72 -7.97,4.34 -13.51,7.78 -5.55,3.47 -10.59,7.26 -15.08,11.44 -4.84,4.14 -7.81,8.13 -8.87,11.96 -3.08,13.51 -7.42,24.45 -12.97,32.73 -5.89,8.01 -13.32,14.92 -22.34,20.78 -9.02,5.59 -19.57,11.49 -31.72,17.74 -5.55,2.07 -12.65,4.14 -21.33,6.21 -8.63,1.72 -17.5,2.97 -26.48,3.63 -9.38,0.7 -17.7,0.55 -24.96,-0.51 -15.24,-3.12 -32.42,-10.39 -51.49,-21.87 -18.711,-11.41 -36.52,-24.77 -53.512,-40 -17.027,-15.28 -30.707,-30.31 -41.098,-45.24 -10.39,-15.23 -14.921,-28.04 -13.468,-38.43 -9.032,-8.68 -19.262,-16.14 -30.711,-22.35 -11.09,-6.25 -22.34,-11.99 -33.781,-17.19 -6.219,-3.12 -19.379,-7.26 -39.5,-12.46 -20.071,-5.19 -44.532,-11.09 -73.282,-17.649 -28.789,-6.961 -59.488,-14.07 -92.027,-21.332 -32.582,-7.66 -64.652,-15.43 -96.172,-23.398 -31.519,-7.969 -59.961,-15.782 -85.269,-23.403 -25.629,-7.968 -45.711,-15.429 -60.321,-22.34 -11.75,-5.546 -24.371,-12.148 -37.929,-19.769 -13.86,-7.258 -26.68,-15.578 -38.43,-24.957 -12.149,-9.371 -21.879,-19.762 -29.141,-31.172 -5.199,-8.711 -10.398,-19.57 -15.59,-32.77 -5.199,-13.171 -10.937,-26.679 -17.187,-40.55 -6.211,-13.828 -13.473,-25.981 -21.801,-36.371 -7.961,-10.778 -17.5,-17.649 -28.59,-20.821 -12.461,-3.117 -24.761,-5.187 -36.91,-6.25 -11.8007,-1.359 -23.4022,-3.277 -34.8515,-5.66 -11.789,-2.109 -23.7109,-6.098 -35.8593,-11.988 -5.8907,-3.129 -12.1094,-6.57 -18.711,-10.391 -6.5976,-3.828 -11.78904,-8.48 -15.62107,-14.027 -3.437505,-5.551 -3.437505,-8.672 0,-9.371 3.12109,-0.711 7.65237,-0.16 13.51167,1.597 5.8985,2.071 11.4883,4.301 16.6797,6.723 5.1993,2.07 8.1289,3.277 8.7891,3.668 11.8398,2.731 23.4023,3.981 34.8516,3.59 11.789,0 23.3906,-0.149 34.8398,-0.5 11.801,0 23.199,1.402 34.301,4.172 18.711,5.199 33.629,14.027 44.719,26.527 11.449,12.461 21.332,26.481 29.652,42.07 8.316,15.582 17.109,30.704 26.527,45.231 -1.449,-16.949 -0.711,-33.629 2.071,-49.918 2.73,-16.602 5.859,-33.082 9.332,-49.371 3.476,-16.61 5.347,-33.442 5.699,-50.391 0.711,-31.219 -1.711,-62.078 -7.262,-92.578 -5.551,-30.473 -15.738,-59.07 -30.668,-85.742 -9.68,-17.699 -14.211,-39.539 -13.512,-65.508 0.7,-26.332 7.422,-53.562 20.27,-81.601 12.82,-28.09 32.23,-53.911 58.242,-77.469 25.981,-23.59 59.258,-41.602 99.77,-54.102 40.898,-12.769 89.961,-16.949 147.148,-12.461 -59.301,9.383 -105.859,25.981 -139.879,49.922 -34.262,23.559 -58.211,51.449 -71.719,83.719 -13.519,32.18 -18.711,65.66 -15.589,100.312 3.128,34.688 12.148,67.579 27.027,98.75 15.242,31.207 34.5,57.539 57.699,79.02 22.891,21.84 47.852,35.859 74.883,42.148 17.66,23.871 34.961,50.082 51.988,78.442 17.313,28.789 33.789,57.73 49.379,86.828 15.231,29.461 29.453,57.351 42.621,83.711 13.16,25.98 24.762,48.48 34.84,67.582 l 29.102,-35.391 21.839,36.918 24.411,-53.519 c 15.937,-4.879 28.949,-12.461 39.019,-22.852 10,-10.078 19.731,-20.629 29.11,-31.719 8.98,-11.089 20.269,-20.269 33.781,-27.578 1.719,-6.91 2.777,-15.23 3.09,-24.961 0.347,-9.691 -1.911,-17.808 -6.762,-24.41 -6.91,-6.922 -15.738,-11.801 -26.52,-14.57 -10.699,-2.43 -20.937,-6.41 -30.629,-11.918 -10.031,-5.192 -17.531,-15.434 -22.339,-30.703 -2.813,-11.797 -2.461,-25.469 1.019,-41.059 3.789,-15.621 8.668,-32.422 14.57,-50.43 6.211,-18 11.09,-36.75 14.532,-56.171 3.468,-19.02 3.468,-38.079 0,-57.149 -2.782,-13.859 -6.563,-24.609 -11.453,-32.219 -4.84,-8.011 -10.387,-15.121 -16.598,-21.332 -6.25,-5.859 -12.852,-12.808 -19.801,-20.781 -6.57,-7.656 -13.32,-18.207 -20.238,-31.719 4.848,-23.91 9.18,-50.429 12.969,-79.531 4.179,-29.098 7.66,-57.848 10.39,-86.289 1.758,-0.699 6.797,-1.758 15.078,-3.129 8.321,-1.359 19.102,-3.121 32.262,-5.191 5.859,-3.129 12.617,-7.418 20.238,-13.008 7.301,-5.551 14.922,-10.551 22.891,-15.082 8.32,-4.18 16.289,-5.699 23.91,-4.649 7.262,0.668 15.27,1.18 23.942,1.532 8.628,0 16.449,1.047 23.359,3.117 6.598,2.461 10.59,6.922 11.949,13.562 0,1.36 -0.308,4.289 -1.012,8.789 -1.058,4.879 -2.777,9.879 -5.199,15.071 -2.07,5.551 -5.187,10.078 -9.371,13.519 -3.09,2.77 -5.898,5.59 -8.277,8.321 -2.461,2.461 -5.903,3.98 -10.391,4.687 -4.18,0.352 -9.219,0.512 -15.121,0.512 -5.898,0 -10.039,1.91 -12.461,5.738 -6.598,12.461 -11.098,26.992 -13.558,43.672 -2.379,16.641 -3.59,33.398 -3.59,50.43 0,17.3 0,32.89 0,46.8 0.308,26.68 2.07,53.36 5.191,80.04 3.438,26.32 7.109,52.808 10.938,79.531 3.75,26.328 6.722,52.847 8.793,79.527 0.699,5.543 2.968,11.094 6.796,16.641 3.793,5.551 7.813,11.051 11.954,16.64 4.488,5.512 7.929,10.903 10.386,16.129 10.391,25.633 19.571,51.602 27.543,77.973 5.547,17.309 10.039,34.648 13.52,51.988 3.469,17.27 7.109,34.61 10.929,51.961 4.141,17.301 9.692,34.488 16.641,51.481 2.777,6.879 7.27,15.898 13.481,26.988 6.25,11.101 13.519,21.68 21.839,31.723 8.321,10.078 17.149,16.988 26.519,20.777 9.34,3.519 18.75,1.25 28.09,-6.719 2.73,-2.461 6.72,-6.09 11.91,-10.93 5.59,-5.199 10.63,-10.55 15.12,-16.14 10.39,-13.16 21.99,-21.988 34.8,-26.52 12.46,-4.492 26.17,-3.281 41.06,3.668 11.83,6.25 17.03,13.672 15.58,22.352 -1.01,9.019 -4.8,18.199 -11.4,27.57 13.86,-0.39 27.22,2.07 40,7.27 13.2,5.55 23.79,14.058 31.72,25.47 4.88,6.56 10.43,14.57 16.68,23.9 5.86,9.03 8.47,17.5 7.77,25.47 -0.35,7.62 -7.77,13.17 -22.38,16.64" /><path
         id="path16"
         style="fill:#050505;fill-opacity:1;fill-rule:nonzero;stroke:none"
         d="m 1602.5,617.148 c -16.17,-5 -30.74,-5.859 -43.75,-2.66 -13.55,3.672 -25.27,9.301 -35.16,16.883 -9.49,7.731 -19.18,16.949 -29.06,27.649 L 1334.84,836.051 V 684.488 c 0.2,-7.109 3.32,-12.34 9.38,-15.777 2.81,-1.68 5.82,-2.5 9.06,-2.5 h 5.78 v -2.973 h -62.5 v 2.973 h 5.78 c 5.08,0 9.46,1.758 13.13,5.309 3.63,3.519 5.47,7.968 5.47,13.281 v 166.41 c -1.06,1.328 -3.09,3.988 -6.1,7.969 -3.04,3.941 -5.58,7.109 -7.65,9.531 -1.99,2.5 -4.69,5.668 -8.13,9.527 -3.44,3.953 -6.64,7.114 -9.53,9.532 -2.93,2.5 -6.33,5.351 -10.15,8.601 -6.02,4.57 -12.5,7.848 -19.38,9.84 -6.88,2.07 -12.7,3.129 -17.5,3.129 -4.77,0 -9.88,-0.789 -15.31,-2.352 l -1.25,2.973 c 9.68,4.059 19.06,6.09 28.12,6.09 8.99,0 16.68,-1.09 23.13,-3.281 6.44,-2.11 13.43,-5.891 20.93,-11.399 7.5,-5.43 13.6,-10.473 18.29,-15.16 4.76,-4.609 10.5,-10.621 17.18,-18.121 l 152.82,-169.692 v 155.473 c -0.24,5.309 -2.15,9.719 -5.79,13.277 -3.67,3.512 -8.04,5.313 -13.12,5.313 h -5.62 v 2.969 h 62.34 v -2.969 h -5.47 c -5,0 -9.34,-1.801 -12.97,-5.313 -3.67,-3.558 -5.58,-7.886 -5.78,-12.968 V 682.93 c 1.95,-2.192 4.84,-5.551 8.59,-10 3.75,-4.489 6.33,-7.66 7.82,-9.532 1.56,-1.757 3.82,-4.296 6.87,-7.66 3.13,-3.437 5.7,-6.09 7.81,-7.968 2.07,-1.95 4.69,-4.411 7.82,-7.34 3.12,-3.008 6.01,-5.352 8.75,-7.032 2.81,-1.757 5.93,-3.75 9.37,-5.937 4.77,-2.813 10.24,-4.883 16.41,-6.25 6.25,-1.441 11.29,-2.191 15.15,-2.191 3.95,0 8.17,0.429 12.66,1.25 z m -28.63,268.59 c 13.12,5.391 25.7,8.133 37.81,8.133 10.08,0 20.51,-3.711 31.25,-11.101 5.94,-4.059 12.5,-11.989 19.69,-23.75 4.88,-8.04 11.09,-22.649 18.59,-43.899 l 36.88,-104.851 c 8.51,-23.43 17.18,-42.11 25.93,-55.93 8.83,-13.828 16.88,-24.262 24.07,-31.25 7.26,-6.961 14.88,-11.879 22.81,-14.692 7.89,-2.808 14.41,-4.218 19.53,-4.218 5.19,0 9.77,0.39 13.75,1.09 l 0.31,-2.969 c -9.69,-3.199 -19.18,-4.84 -28.44,-4.84 -9.29,0 -18.59,2.418 -27.96,7.187 -9.3,4.692 -17.93,11.332 -25.94,19.84 -17.42,17.5 -32.19,44.262 -44.38,80.313 l -11.72,34.539 h -83.12 l -20.94,-53.91 c -0.94,-2.5 -1.4,-4.961 -1.4,-7.34 0,-2.43 1.01,-5 3.12,-7.82 2.07,-2.731 5.35,-4.059 9.84,-4.059 h 2.5 v -2.973 h -60.93 v 2.973 h 2.65 c 4.89,0 9.61,1.449 14.22,4.379 4.69,3 8.52,7.422 11.56,13.281 l 75.16,180 c -10.94,15.617 -24.49,23.43 -40.62,23.43 -7.31,0 -15.08,-1.52 -23.29,-4.531 z m 32.5,-137.34 h 76.56 l -23.91,70.622 c -4.68,13.519 -8.9,24.14 -12.65,31.878 z" /><path
         id="path18"
         style="fill:#050505;fill-opacity:1;fill-rule:nonzero;stroke:none"
         d="m 2067.77,617.148 c -16.17,-5 -30.74,-5.859 -43.75,-2.66 -13.55,3.672 -25.27,9.301 -35.15,16.883 -9.49,7.731 -19.18,16.949 -29.07,27.649 L 1800.12,836.051 V 684.488 c 0.19,-7.109 3.32,-12.34 9.37,-15.777 2.81,-1.68 5.82,-2.5 9.06,-2.5 h 5.79 v -2.973 h -62.5 v 2.973 h 5.78 c 5.08,0 9.45,1.758 13.12,5.309 3.64,3.519 5.47,7.968 5.47,13.281 v 166.41 c -1.05,1.328 -3.09,3.988 -6.09,7.969 -3.05,3.941 -5.59,7.109 -7.66,9.531 -1.99,2.5 -4.69,5.668 -8.12,9.527 -3.44,3.953 -6.64,7.114 -9.54,9.532 -2.92,2.5 -6.32,5.351 -10.15,8.601 -6.02,4.57 -12.5,7.848 -19.38,9.84 -6.87,2.07 -12.69,3.129 -17.5,3.129 -4.76,0 -9.88,-0.789 -15.31,-2.352 l -1.25,2.973 c 9.69,4.059 19.06,6.09 28.13,6.09 8.98,0 16.68,-1.09 23.12,-3.281 6.45,-2.11 13.44,-5.891 20.94,-11.399 7.5,-5.43 13.59,-10.473 18.28,-15.16 4.77,-4.609 10.51,-10.621 17.19,-18.121 l 152.81,-169.692 v 155.473 c -0.23,5.309 -2.15,9.719 -5.78,13.277 -3.67,3.512 -8.05,5.313 -13.13,5.313 h -5.62 v 2.969 h 62.34 v -2.969 h -5.47 c -5,0 -9.33,-1.801 -12.97,-5.313 -3.67,-3.558 -5.58,-7.886 -5.78,-12.968 V 682.93 c 1.96,-2.192 4.85,-5.551 8.6,-10 3.75,-4.489 6.33,-7.66 7.81,-9.532 1.56,-1.757 3.83,-4.296 6.87,-7.66 3.13,-3.437 5.71,-6.09 7.82,-7.968 2.07,-1.95 4.68,-4.411 7.81,-7.34 3.12,-3.008 6.02,-5.352 8.75,-7.032 2.81,-1.757 5.94,-3.75 9.37,-5.937 4.77,-2.813 10.24,-4.883 16.41,-6.25 6.25,-1.441 11.29,-2.191 15.16,-2.191 3.94,0 8.16,0.429 12.65,1.25 z" /><path
         id="path20"
         style="fill:#050505;fill-opacity:1;fill-rule:nonzero;stroke:none"
         d="m 2238.71,769.648 c 0,-34.808 -9.37,-61.949 -28.12,-81.41 -18.68,-19.488 -45.08,-29.218 -79.22,-29.218 -23.05,0 -43.83,4.851 -62.35,14.531 -18.43,9.687 -32.77,22.898 -42.97,39.687 -10.23,16.762 -15.31,35.512 -15.31,56.25 0,20.711 5.04,39.461 15.16,56.25 10.08,16.762 24.06,29.922 41.87,39.532 17.82,9.57 37.58,14.378 59.38,14.378 13.75,0 27.73,-1.878 42.03,-5.628 14.26,-3.75 26.13,-8.75 35.62,-15 l 6.1,-42.649 h -2.81 c -4.18,16.949 -13.99,30.231 -29.38,39.84 -15.31,9.57 -32.42,14.379 -51.25,14.379 -26.87,0 -49.3,-9.61 -67.19,-28.75 -17.81,-19.07 -26.72,-43.09 -26.72,-72.039 0,-28.86 9.22,-53.039 27.66,-72.5 18.52,-19.492 42.74,-29.211 72.66,-29.211 29.88,0 54.25,9.68 73.12,29.058 18.95,19.454 28.44,46.09 28.44,79.84 h 2.97 c 0.19,-2.5 0.31,-4.957 0.31,-7.34 z" /><path
         id="path22"
         style="fill:#050505;fill-opacity:1;fill-rule:nonzero;stroke:none"
         d="m 2224.1,892.77 c 1.49,0 4.02,0 7.66,0 3.67,0 8.59,-0.622 14.84,-1.872 6.25,-1.25 12.03,-3.046 17.35,-5.308 5.39,-2.309 10.66,-5.629 15.78,-10 5.19,-4.379 9.61,-8.442 13.28,-12.192 3.63,-3.75 7.26,-8.668 10.94,-14.687 3.75,-6.051 6.75,-11.211 9.06,-15.473 2.38,-4.179 5,-9.687 7.81,-16.558 3.63,-8.75 6.56,-16.328 8.75,-22.66 2.27,-6.36 3.52,-9.84 3.75,-10.469 0.2,-0.621 0.51,-1.321 0.94,-2.031 0.51,-1.68 0.97,-3.122 1.4,-4.372 0.63,1.442 2.04,5.192 4.22,11.25 2.27,6.012 4.38,11.481 6.25,16.403 1.96,4.89 4.92,11.758 8.91,20.629 4.06,8.832 7.73,15.82 11.09,20.941 3.32,5.188 7.58,11.129 12.82,17.809 5.31,6.64 10.62,11.8 15.93,15.468 12.89,8.75 26.6,13.122 41.1,13.122 v -3.122 c -11.25,0 -22.82,-6.019 -34.69,-17.968 -11.8,-11.879 -21.88,-26.25 -30.31,-43.129 -8.36,-16.871 -15.24,-34.371 -20.63,-52.5 -5.31,-18.039 -7.97,-33.391 -7.97,-46.09 V 685.43 c 0,-7.309 3.13,-12.77 9.38,-16.41 3.01,-1.872 6.33,-2.809 10,-2.809 h 3.59 v -2.973 h -65.94 v 2.973 h 3.91 c 5,0 9.41,1.801 13.28,5.469 3.83,3.629 5.86,8.121 6.1,13.441 v 45.149 c 0,13.519 -2.9,29.378 -8.6,47.5 -5.62,18.21 -12.89,35.671 -21.72,52.351 -8.86,16.641 -19.49,30.699 -31.87,42.18 -12.31,11.57 -24.42,17.347 -36.41,17.347 z" /><path
         id="path24"
         style="fill:#050505;fill-opacity:1;fill-rule:nonzero;stroke:none"
         d="m 2445.82,816.371 c 3.63,17.18 5.47,29.719 5.47,37.649 0,8.011 -0.24,15.16 -0.63,21.41 l 21.25,4.218 c 0,-1.058 0,-3.199 0,-6.41 0,-3.238 -0.58,-8.547 -1.71,-15.937 -1.18,-7.301 -3.6,-15.422 -7.35,-24.371 -3.67,-8.871 -8.44,-14.918 -14.37,-18.129 z" /><path
         id="path26"
         style="fill:#050505;fill-opacity:1;fill-rule:nonzero;stroke:none"
         d="m 2522.77,743.871 c -10.54,-13.75 -15.78,-28.601 -15.78,-44.531 0,-18.988 7.97,-33.719 23.91,-44.219 9.26,-6.332 19.76,-9.531 31.56,-9.531 11.88,0 22.19,2.34 30.94,7.031 16.33,8.551 25.51,22.809 27.5,42.809 0.19,1.332 0.31,2.73 0.31,4.218 0,7.5 -2.11,15.551 -6.25,24.223 -4.06,8.629 -10.74,16.598 -20,23.899 l -54.69,43.128 c -11.87,9.262 -17.81,21.25 -17.81,35.942 0,14.762 4.73,27.262 14.22,37.5 9.45,10.191 22.27,15.308 38.44,15.308 8.12,0 16.91,-1.019 26.4,-2.968 h 12.19 l 0.63,-37.34 h -3.13 c -0.23,9.68 -3.71,17.262 -10.47,22.808 -6.79,5.622 -15.27,8.442 -25.47,8.442 -10.23,0 -18.75,-3.399 -25.62,-10.16 -6.8,-6.801 -10.16,-15.469 -10.16,-26.09 0,-10.629 4.42,-19.5 13.28,-26.57 l 56.1,-44.219 c 22.18,-17.61 33.28,-38.821 33.28,-63.59 0,-18.672 -7.35,-34.652 -22.03,-47.973 -12.82,-11.437 -29.81,-17.187 -50.94,-17.187 -12.93,0 -24.45,2.429 -34.53,7.187 -19.06,8.992 -30.55,24.102 -34.38,45.473 -0.62,3.199 -0.93,7.269 -0.93,12.187 0,5 1.4,11.762 4.21,20.313 2.9,8.629 8.36,17.34 16.41,26.09 z" /><path
         id="path28"
         style="fill:#c16495;fill-opacity:1;fill-rule:nonzero;stroke:none"
         d="m 1580.08,67.3789 c 0.31,3.2109 -0.08,6.1016 -1.1,8.6016 -0.43,1.3203 -1.01,1.6015 -1.71,0.7812 -2.82,-4.0625 -6.96,-7.6211 -12.35,-10.6328 -4.49,-2.5 -8.12,-3.8281 -10.94,-3.8984 -8.12,-0.3203 -15.74,0.9687 -22.81,3.8984 -5.74,2.3906 -10.86,5.3906 -15.31,9.0703 -0.86,0.5 -0.86,1.6016 0,3.2813 3.75,5.8203 7.89,15.3906 12.5,28.7495 4.45,12.18 7.66,23.36 9.53,33.59 0.51,2.809 1.56,4.41 3.13,4.84 18,4.77 30.23,13.051 36.71,24.852 2.19,4.058 3.29,8.008 3.29,11.867 0,6.449 -2.31,11.57 -6.88,15.32 -3.44,2.571 -7.5,3.903 -12.19,3.903 -4.68,0 -9.49,-1.25 -14.37,-3.75 -4.92,-2.5 -8.75,-5.582 -11.56,-9.223 -7.19,-9.289 -12,-17.731 -14.38,-25.309 -0.55,-2.191 -2.3,-2.73 -5.31,-1.558 -7.31,2.886 -11.64,5.937 -12.97,9.058 -0.31,1.02 -0.74,1.95 -1.25,2.809 -0.43,0.941 -0.74,1.801 -0.94,2.66 -0.62,1.332 -1.68,2.109 -3.12,2.34 -2.19,0.082 -3.91,-1.09 -5.16,-3.59 -1.25,-2.5 -1.87,-5.391 -1.87,-8.59 0,-5.238 2.42,-9.687 7.34,-13.437 4.45,-3.242 9.37,-5.391 14.69,-6.41 2.18,-0.43 2.89,-1.68 2.18,-3.75 -1.36,-4.301 -2.73,-8.512 -4.06,-12.653 -1.37,-4.179 -2.77,-8.359 -4.22,-12.5 -2.61,-7.617 -4.76,-13.679 -6.4,-18.1287 -1.57,-4.3711 -2.74,-7.1914 -3.44,-8.4414 -0.94,-1.6797 -1.84,-2.1094 -2.66,-1.25 -2.3,2.2695 -6.95,4.6094 -13.9,7.0313 -8.67,3.2108 -16.8,4.6098 -24.38,4.2188 -7.5,-0.43 -14.49,-3.0392 -20.94,-7.8087 -6.87,-5.2305 -10.15,-11.6406 -9.84,-19.2187 0.63,-14.6914 12.03,-22.7696 34.22,-24.2227 8.2,-0.6992 16.56,0.3906 25,3.2813 8.01,3.0117 14.06,6.7617 18.12,11.25 1.14,1.3281 2.58,1.3281 4.38,0 6.76,-4.9219 13.32,-8.5508 19.69,-10.9297 6.32,-2.3086 13.16,-3.4414 20.47,-3.4414 12.69,0 23.12,4.1015 31.25,12.3398 0.82,0.7109 1.32,2.3906 1.56,5 z M 1563.83,193.16 c 4.45,0 6.72,-2.262 6.72,-6.711 0,-3.75 -2.03,-7.898 -6.1,-12.347 -4.49,-4.614 -10.23,-8.403 -17.18,-11.403 -1.57,-0.629 -2.74,-0.711 -3.44,-0.16 -0.55,0.512 -0.71,1.441 -0.47,2.813 1.25,5.507 3.75,11.289 7.5,17.347 4.45,6.949 8.79,10.461 12.97,10.461 z m -76.1,-119.5311 c -2.61,-3.0391 -6.68,-5.7383 -12.18,-8.1172 -6.25,-2.7422 -11.68,-3.9922 -16.25,-3.75 -13.13,0.6172 -19.69,4.918 -19.69,12.9688 0,8.75 6.41,13 19.22,12.8086 3.2,-0.2383 6.33,-0.6289 9.37,-1.25 3.01,-0.5508 5.94,-1.4102 8.75,-2.6602 1.14,-0.6172 2.54,-1.3984 4.22,-2.3398 1.64,-0.8594 3.52,-1.9883 5.63,-3.4375 1.95,-1.3711 2.26,-2.7696 0.93,-4.2227 z m 205.98,-6.25 c 0.31,3.2109 -0.08,6.1016 -1.09,8.6016 -0.55,1.3203 -1.17,1.6015 -1.88,0.7812 -1.48,-2.1133 -3.24,-4.0312 -5.31,-5.7812 -2.11,-1.6797 -4.45,-3.2813 -7.03,-4.8516 -4.49,-2.6094 -8.13,-3.8984 -10.94,-3.8984 -7.62,0 -12.62,1.1679 -15,3.5898 -1.05,1.0195 -1.56,2.5 -1.56,4.3789 0,2.0703 0.51,4.6797 1.56,7.8125 1.02,3.1172 2.34,6.7891 3.91,11.0899 1.56,4.2578 3.51,9.1367 5.93,14.6874 6.25,14.063 10.4,23.32 12.5,27.813 1.14,2.808 0.94,5.039 -0.62,6.718 -1.06,0.821 -3.67,1.641 -7.81,2.5 -4.18,0.821 -6.99,1.02 -8.44,0.629 -1.25,-0.429 -2.46,-1.25 -3.59,-2.5 -0.86,-0.75 -1.8,-1.961 -2.82,-3.597 -0.86,-1.68 -2.46,-1.832 -4.84,-0.473 -5.12,2.703 -10.74,3.992 -16.88,3.91 -8.12,-0.238 -16.25,-2.578 -24.37,-7.027 -10.74,-5.942 -19.06,-14.653 -25,-26.102 -6.02,-11.3592 -9.06,-21.8709 -9.06,-31.5584 0,-7.5 2.15,-13.5508 6.4,-18.1211 3.95,-5 9.57,-7.5 16.88,-7.5 7.69,0 15.7,3.75 24.06,11.25 5.82,5.1914 9.84,10.039 12.03,14.5312 0.31,0.6172 0.71,1.1289 1.25,1.5586 0.51,0.3906 0.94,0.5508 1.25,0.4688 0.08,-0.3086 0.08,-0.7774 0,-1.4102 -1.25,-4.4883 -1.87,-7.7695 -1.87,-9.8398 0,-4.4883 1.91,-8.1289 5.78,-10.9375 3.83,-2.7305 10.97,-4.0625 21.4,-4.0625 2.07,0 4.07,0.1211 5.94,0.3125 1.96,0.1172 3.83,0.3086 5.63,0.6289 8.43,1.3203 15.78,5.1484 22.03,11.3984 0.7,0.7109 1.25,2.3906 1.56,5 z m -50.16,49.3831 c -6.99,-15 -13.9,-26.7229 -20.78,-35.1604 -2.61,-2.9297 -4.68,-5.3125 -6.25,-7.1914 -1.56,-1.8711 -2.73,-3.1993 -3.43,-3.8985 -3.87,-3.9922 -7.27,-5.9414 -10.16,-5.9414 -5.31,0 -7.97,3.5195 -7.97,10.6289 0,7.2617 3.32,16.25 10,26.8708 3.75,5.629 8.67,10.469 14.84,14.532 6.45,4.058 11.92,5.937 16.41,5.628 5,-0.242 7.5,-1.57 7.5,-4.07 0,-0.621 -0.08,-1.09 -0.16,-1.398 z" /><path
         id="path30"
         style="fill:#c16495;fill-opacity:1;fill-rule:nonzero;stroke:none"
         d="m 1786.64,67.3789 c 0.2,3.2109 -0.23,6.1016 -1.25,8.6016 -0.43,1.3203 -1.01,1.6015 -1.72,0.7812 -2.81,-4.0625 -6.95,-7.6211 -12.34,-10.6328 -4.49,-2.5 -8.13,-3.8281 -10.94,-3.8984 -6.25,-0.3203 -10,-0.0821 -11.25,0.7812 -1.17,0.8203 -1.21,1.7578 -0.16,2.8086 1.33,1.25 3.13,3.9102 5.32,7.9688 1.56,2.8125 2.65,5.4726 3.28,7.9726 0.62,2.5 1.01,4.7578 1.25,6.8672 0.31,7.7031 -1.41,15.2031 -5.16,22.5001 -1.48,3.012 -2.89,5.551 -4.22,7.66 -1.36,2.07 -2.81,3.75 -4.37,5 -0.74,0.512 -0.74,1.871 0,4.063 0.31,0.507 0.78,1.41 1.4,2.66 0.63,1.328 1.45,3.039 2.5,5.148 1.64,3.129 2.58,5.629 2.82,7.5 0.19,5.512 -3.36,8.442 -10.63,8.75 -3.75,0.199 -7.81,-1.051 -12.19,-3.75 -3.98,-2.422 -6.36,-5.461 -7.18,-9.211 -0.12,-0.75 -0.24,-1.488 -0.32,-2.187 0,-0.633 0,-1.25 0,-1.883 0,-1.867 0.36,-3.75 1.1,-5.617 0.82,-1.883 1.17,-3.364 1.09,-4.383 -1.37,-4.059 -6.37,-12.18 -15,-24.367 -3.87,-5.5511 -7.3,-10.2815 -10.31,-14.2229 -3.05,-3.9883 -5.59,-7.1485 -7.66,-9.5274 -7.38,-8.3633 -15,-13.2109 -22.81,-14.5312 -0.62,-0.2422 -0.94,-1.0586 -0.94,-2.5 0,-2.7422 0.55,-5.1602 1.57,-7.3516 0.23,-0.9297 1.01,-1.3984 2.34,-1.3984 6.87,1.3203 12.58,3.789 17.03,7.3398 0.55,0.6289 1.25,0.5508 2.19,-0.1601 6.13,-6.25 14.61,-9.1016 25.47,-8.5899 5.19,0.3086 9.14,0.7813 11.87,1.4102 0.2,0.0703 2.07,0.8203 5.63,2.1797 1.01,0.3203 1.91,0.2382 2.65,-0.1485 1.96,-1.3711 6.18,-2.2304 12.66,-2.6601 5.51,-0.3125 10.39,-0.0821 14.69,0.6289 8.32,1.3203 15.66,5.1484 22.03,11.3984 0.7,0.7109 1.25,2.3906 1.56,5 z m -53.28,13.75 c -2.93,-9.0586 -7.93,-14.7969 -15,-17.1797 -2.93,-0.8594 -4.53,-0.7109 -4.84,0.461 -0.86,3.8281 -2.58,6.4101 -5.16,7.6601 -1.8,0.5117 -2.66,1.25 -2.66,2.1914 0,0.3867 0.35,1.1289 1.1,2.1875 1.95,2.2617 5.82,7.0313 11.56,14.211 6.33,8.4414 9.84,13.3198 10.47,14.6918 0.39,1.019 0.97,1.558 1.72,1.558 0.82,0.32 1.44,-0.07 1.87,-1.09 1.64,-3.55 2.5,-8.0895 2.5,-13.5895 0,-4.1797 -0.54,-7.8907 -1.56,-11.1016 z" /><path
         id="path32"
         style="fill:#c16495;fill-opacity:1;fill-rule:nonzero;stroke:none"
         d="m 2000.23,149.102 c 0.94,1.449 1.41,2.886 1.41,4.378 0,2.071 -0.78,3.36 -2.34,3.899 -2.11,0.82 -3.91,1.57 -5.47,2.191 -1.56,0.7 -2.89,1.41 -3.91,2.032 -1.05,0.386 -1.56,2.187 -1.56,5.308 0,0.199 0.23,1.762 0.78,4.692 0.51,2.886 0.78,5.546 0.78,7.968 0,0.821 -0.08,1.641 -0.15,2.5 0,0.942 -0.12,1.879 -0.32,2.809 -0.54,3.133 -2.15,5.941 -4.84,8.441 -2.73,2.578 -5.78,3.91 -9.22,3.91 -1.48,0 -3.09,-0.39 -4.84,-1.101 -6.57,-3.039 -9.85,-8.359 -9.85,-15.93 0,-8.679 2.27,-15.398 6.88,-20.16 0.94,-0.937 0.94,-3.199 0,-6.719 -3.05,-11.679 -7.5,-23.55 -13.44,-35.621 -8.24,-16.25 -17.42,-28.4373 -27.5,-36.5701 -9.18,-7.2969 -17.03,-10.9297 -23.59,-10.9297 -8.44,0 -12.66,6.1328 -12.66,18.4297 0,2.7031 0.2,5.6328 0.63,8.75 1.01,7.2691 2.34,14.1011 3.9,20.4731 1.64,6.449 3.52,12.418 5.63,17.968 5.7,14.692 15.19,32.578 28.43,53.75 0.51,0.629 0.79,1.289 0.79,2.032 0,3.007 -2.93,4.878 -8.75,5.628 -1.49,0.071 -2.78,0.192 -3.91,0.309 -1.17,0.082 -2.11,0.16 -2.81,0.16 -3.87,0 -7.5,-1.679 -10.94,-5 -6.56,-5.859 -13.98,-19.687 -22.19,-41.57 -9.61,-25 -14.37,-47.027 -14.37,-66.0899 0,-2.3086 0.11,-4.4883 0.31,-6.5586 0.12,-2.1094 0.31,-4.0703 0.62,-5.9414 0.86,-7.418 3.99,-13.1289 9.54,-17.1875 5.5,-4.0625 11.95,-6.0899 19.37,-6.0899 12.07,0 25.08,5.2266 39.06,15.7774 20.2,15.6992 35.78,42.0309 46.72,78.9099 0.51,2.383 2.07,3.16 4.69,2.34 1.13,-0.43 2.07,-0.777 2.81,-1.09 0.7,-0.32 1.33,-0.551 1.88,-0.629 2.89,-1.172 5.7,0.352 8.43,4.532 z" /><path
         id="path34"
         style="fill:#c16495;fill-opacity:1;fill-rule:nonzero;stroke:none"
         d="m 2076.84,67.3789 c 0.31,3.2109 -0.08,6.1016 -1.1,8.6016 -0.43,1.3203 -1.01,1.6015 -1.72,0.7812 -6.48,-8.6719 -14.33,-13.4414 -23.59,-14.3828 -14.18,-1.3594 -24.53,-0.1484 -31.09,3.6016 -1.8,0.9297 -2.66,1.6406 -2.66,2.1797 0,0.1992 0.35,0.6718 1.09,1.4101 2.82,2.0703 5.67,4.4102 8.6,7.0313 2.89,2.5781 5.86,5.5468 8.9,8.9101 9.57,10.3086 14.93,18.9763 16.1,26.0903 0.39,2.699 0.62,5.238 0.62,7.66 0,10.699 -4.33,17.968 -12.97,21.718 -2.18,1.008 -5.23,1.559 -9.06,1.559 -6.87,0 -13.55,-1.801 -20,-5.309 -7.81,-4.179 -13.87,-10.55 -18.12,-19.07 -5.94,-11.789 -8.91,-22.8084 -8.91,-33.1209 0,-11.8008 4.02,-21.0586 12.03,-27.8086 6.95,-5.6289 19.06,-8.4414 36.25,-8.4414 8.2,0 15.63,0.6992 22.19,2.0312 8.32,1.4492 15.62,5.3086 21.87,11.5586 0.82,0.7109 1.33,2.3906 1.57,5 z m -45.32,57.6601 c 4.26,0 6.41,-2.5 6.41,-7.5 0,-3.668 -1.64,-8.238 -4.84,-13.75 -5.32,-8.9882 -12.97,-16.5585 -22.97,-22.8085 -2.93,-2.1094 -4.38,-0.75 -4.38,4.0586 0,6.6406 2.38,14.9999 7.19,24.9999 2.07,4.449 4.92,8.051 8.59,10.781 3.64,2.809 6.96,4.219 10,4.219 z" /><path
         id="path36"
         style="fill:#c16495;fill-opacity:1;fill-rule:nonzero;stroke:none"
         d="m 2193.12,67.3789 c 0.2,3.2109 -0.23,6.1016 -1.24,8.6016 -0.43,1.3203 -1.02,1.6015 -1.72,0.7812 -2.74,-3.3633 -6.21,-6.4922 -10.47,-9.3828 -5.31,-3.4297 -9.61,-5.1484 -12.81,-5.1484 -7.19,-0.3203 -13.25,-1.0196 -18.13,-2.0313 -0.43,-0.2383 -0.94,-0.3203 -1.56,-0.3203 -0.31,0.2031 -0.31,0.6719 0,1.4102 0.08,0.082 0.15,0.2304 0.15,0.4726 0,0.0781 0.08,0.3086 0.32,0.6172 1.44,3.75 6.13,15.8203 14.06,36.25 8.83,23.0121 13.28,35.0431 13.28,36.1011 0,2.379 -1.33,4.141 -3.91,5.309 -1.36,0.621 -3.71,0.981 -7.03,1.09 -3.24,0.203 -5.39,0.16 -6.4,-0.149 -2.5,-1.179 -4.07,-2.269 -4.69,-3.281 -1.49,-3.359 -3.05,-5 -4.69,-5 -0.94,0 -1.68,0.461 -2.19,1.403 -5.23,3.128 -10.89,4.687 -17.03,4.687 -9.61,0 -19.18,-3.398 -28.75,-10.16 -9.37,-6.68 -16.68,-14.918 -21.87,-24.68 -5.2,-9.6873 -7.82,-19.9685 -7.82,-30.7888 0,-14.9219 6.45,-22.8516 19.38,-23.8985 6.76,-0.6328 14.53,1.9492 23.28,7.8086 7.07,4.7695 11.64,8.9492 13.75,12.5 0.63,1.0195 1.29,1.5586 2.03,1.5586 1.14,0 1.33,-0.5781 0.63,-1.7187 -2.11,-4.8008 -4.18,-9.3711 -6.25,-13.75 -1.99,-4.2891 -3.91,-8.5118 -5.78,-12.8086 -1.06,-0.7032 -2.11,-1.3321 -3.13,-1.8711 -3.75,-1.961 -7.65,-4.8907 -11.72,-8.75 -4.61,-4.461 -7.77,-8.3594 -9.53,-11.7188 -1.68,-3.4414 -2.5,-6.5625 -2.5,-9.3828 0,-3.42968 1.1,-6.08984 3.28,-7.96874 2.27,-1.94922 5.04,-2.960941 8.28,-2.960941 4.77,0 10.04,2.500001 15.78,7.500001 6.02,4.99998 12.74,16.08988 20.16,33.28128 1.76,4.289 7.5,7.1093 17.19,8.4297 3.12,0.3203 5.82,0.6289 8.12,0.9414 2.27,0.3086 4.26,0.5468 5.94,0.6289 8.32,1.3203 15.67,5.1484 22.03,11.3984 0.71,0.7109 1.25,2.3906 1.56,5 z m -50,48.9101 c -3.24,-8.359 -8.2,-17.1484 -14.84,-26.4101 -11.87,-16.5586 -20.78,-24.8398 -26.72,-24.8398 -5.31,0 -7.97,3.1992 -7.97,9.6914 0,5.8203 2.89,13.4297 8.75,22.8086 2.27,3.5119 4.73,6.8709 7.35,9.9999 2.69,3.199 5.51,5.941 8.43,8.121 2.9,2.27 5.83,4.07 8.76,5.32 2.89,1.321 5.7,2.032 8.43,2.032 2.19,0 4.26,-0.473 6.25,-1.41 1.96,-0.942 2.5,-2.731 1.56,-5.313 z" /><path
         id="path38"
         style="fill:#c16495;fill-opacity:1;fill-rule:nonzero;stroke:none"
         d="m 2306.56,67.3789 c 0.32,3.2109 -0.08,6.1016 -1.09,8.6016 -0.55,1.3203 -1.17,1.6015 -1.88,0.7812 -1.48,-2.1133 -3.24,-4.0312 -5.31,-5.7812 -2.11,-1.6797 -4.45,-3.2813 -7.03,-4.8516 -4.49,-2.6094 -8.13,-3.8984 -10.94,-3.8984 -7.61,0 -12.61,1.1679 -15,3.5898 -1.05,1.0195 -1.56,2.5 -1.56,4.3789 0,2.0703 0.51,4.6797 1.56,7.8125 1.02,3.1172 2.35,6.7891 3.91,11.0899 1.56,4.2578 3.51,9.1367 5.94,14.6874 6.25,14.063 10.39,23.32 12.5,27.813 1.13,2.808 0.93,5.039 -0.63,6.718 -1.05,0.821 -3.67,1.641 -7.81,2.5 -4.18,0.821 -6.99,1.02 -8.44,0.629 -1.25,-0.429 -2.46,-1.25 -3.59,-2.5 -0.86,-0.75 -1.8,-1.961 -2.81,-3.597 -0.86,-1.68 -2.47,-1.832 -4.85,-0.473 -5.12,2.703 -10.74,3.992 -16.87,3.91 -8.13,-0.238 -16.25,-2.578 -24.38,-7.027 -10.74,-5.942 -19.06,-14.653 -25,-26.102 -6.01,-11.3592 -9.06,-21.8709 -9.06,-31.5584 0,-7.5 2.15,-13.5508 6.4,-18.1211 3.95,-5 9.58,-7.5 16.88,-7.5 7.7,0 15.7,3.75 24.06,11.25 5.82,5.1914 9.85,10.039 12.03,14.5312 0.32,0.6172 0.71,1.1289 1.25,1.5586 0.51,0.3906 0.94,0.5508 1.25,0.4688 0.08,-0.3086 0.08,-0.7774 0,-1.4102 -1.25,-4.4883 -1.87,-7.7695 -1.87,-9.8398 0,-4.4883 1.91,-8.1289 5.78,-10.9375 3.83,-2.7305 10.98,-4.0625 21.41,-4.0625 2.07,0 4.06,0.1211 5.93,0.3125 1.96,0.1172 3.83,0.3086 5.63,0.6289 8.44,1.3203 15.78,5.1484 22.03,11.3984 0.7,0.7109 1.25,2.3906 1.56,5 z m -50.15,49.3831 c -7,-15 -13.91,-26.7229 -20.79,-35.1604 -2.61,-2.9297 -4.68,-5.3125 -6.24,-7.1914 -1.57,-1.8711 -2.74,-3.1993 -3.44,-3.8985 -3.87,-3.9922 -7.27,-5.9414 -10.16,-5.9414 -5.31,0 -7.97,3.5195 -7.97,10.6289 0,7.2617 3.32,16.25 10,26.8708 3.75,5.629 8.67,10.469 14.85,14.532 6.44,4.058 11.91,5.937 16.4,5.628 5,-0.242 7.5,-1.57 7.5,-4.07 0,-0.621 -0.08,-1.09 -0.15,-1.398 z" /><path
         id="path40"
         style="fill:#c16495;fill-opacity:1;fill-rule:nonzero;stroke:none"
         d="m 2399.49,67.3789 c 0.2,3.2109 -0.23,6.1016 -1.25,8.6016 -0.43,1.3203 -1.01,1.6015 -1.72,0.7812 -2.81,-4.0625 -6.95,-7.6211 -12.34,-10.6328 -4.49,-2.5 -8.13,-3.8281 -10.94,-3.8984 -6.25,-0.3203 -10,-0.0821 -11.25,0.7812 -1.17,0.8203 -1.21,1.7578 -0.15,2.8086 1.32,1.25 3.12,3.9102 5.31,7.9688 1.56,2.8125 2.65,5.4726 3.28,7.9726 0.62,2.5 1.02,4.7578 1.25,6.8672 0.31,7.7031 -1.41,15.2031 -5.16,22.5001 -1.48,3.012 -2.89,5.551 -4.22,7.66 -1.36,2.07 -2.81,3.75 -4.37,5 -0.74,0.512 -0.74,1.871 0,4.063 0.31,0.507 0.78,1.41 1.41,2.66 0.62,1.328 1.44,3.039 2.5,5.148 1.64,3.129 2.57,5.629 2.81,7.5 0.19,5.512 -3.36,8.442 -10.63,8.75 -3.75,0.199 -7.81,-1.051 -12.18,-3.75 -3.99,-2.422 -6.37,-5.461 -7.19,-9.211 -0.12,-0.75 -0.24,-1.488 -0.31,-2.187 0,-0.633 0,-1.25 0,-1.883 0,-1.867 0.35,-3.75 1.09,-5.617 0.82,-1.883 1.17,-3.364 1.09,-4.383 -1.36,-4.059 -6.36,-12.18 -15,-24.367 -3.86,-5.5511 -7.3,-10.2815 -10.31,-14.2229 -3.05,-3.9883 -5.59,-7.1485 -7.66,-9.5274 -7.38,-8.3633 -15,-13.2109 -22.81,-14.5312 -0.62,-0.2422 -0.94,-1.0586 -0.94,-2.5 0,-2.7422 0.55,-5.1602 1.57,-7.3516 0.23,-0.9297 1.01,-1.3984 2.34,-1.3984 6.88,1.3203 12.58,3.789 17.03,7.3398 0.55,0.6289 1.25,0.5508 2.19,-0.1601 6.13,-6.25 14.61,-9.1016 25.47,-8.5899 5.19,0.3086 9.14,0.7813 11.87,1.4102 0.2,0.0703 2.07,0.8203 5.63,2.1797 1.01,0.3203 1.91,0.2382 2.65,-0.1485 1.96,-1.3711 6.18,-2.2304 12.66,-2.6601 5.51,-0.3125 10.39,-0.0821 14.69,0.6289 8.32,1.3203 15.66,5.1484 22.03,11.3984 0.7,0.7109 1.25,2.3906 1.56,5 z m -53.28,13.75 c -2.93,-9.0586 -7.93,-14.7969 -15,-17.1797 -2.93,-0.8594 -4.53,-0.7109 -4.84,0.461 -0.86,3.8281 -2.58,6.4101 -5.16,7.6601 -1.8,0.5117 -2.66,1.25 -2.66,2.1914 0,0.3867 0.36,1.1289 1.1,2.1875 1.95,2.2617 5.82,7.0313 11.56,14.211 6.33,8.4414 9.84,13.3198 10.47,14.6918 0.39,1.019 0.98,1.558 1.72,1.558 0.82,0.32 1.44,-0.07 1.87,-1.09 1.64,-3.55 2.5,-8.0895 2.5,-13.5895 0,-4.1797 -0.54,-7.8907 -1.56,-11.1016 z" /><path
         id="path42"
         style="fill:#000000;fill-opacity:1;fill-rule:nonzero;stroke:none"
         d="m 945.43,488.711 c 13.199,0 24.218,-3.199 32.968,-9.531 11.762,-8.442 17.653,-21.641 17.653,-39.532 0,-13.046 -3.672,-24.179 -10.93,-33.437 -7.82,-9.801 -18.75,-14.691 -32.82,-14.691 -7.422,0 -14.141,1.761 -20.153,5.32 -6.058,3.512 -9.609,9.609 -10.628,18.281 l 2.031,0.617 c 1.648,-6.476 5.508,-11.008 11.57,-13.59 4.059,-1.796 7.649,-2.66 10.777,-2.66 12.383,0 21.403,4.852 27.032,14.532 4.058,7.07 6.09,15.511 6.09,25.32 0,15.699 -4.372,27.07 -13.122,34.058 -6.679,5.391 -15.16,8.122 -25.468,8.122 -2.418,0 -4.489,-0.149 -6.25,-0.469 -1.68,-0.231 -9.219,-1.403 -22.66,-3.59 V 343.09 c 0.082,-4.07 1.57,-7.5 4.378,-10.32 2.891,-2.731 6.293,-4.059 10.153,-4.059 h 2.969 v -2.191 h -49.68 v 2.191 h 2.961 c 3.75,0 7.039,1.328 9.847,4.059 2.891,2.82 4.454,6.25 4.692,10.32 v 122.5 c 0,3.941 -1.18,7.031 -3.442,9.211 -2.308,2.187 -5.277,3.289 -8.91,3.289 -0.738,0 -1.476,-0.078 -2.187,-0.16 l -2.813,-0.309 -0.308,2.34 c 7.808,0.699 18.32,2.187 31.558,4.379 13.211,2.18 21.41,3.43 24.532,3.75 3.21,0.39 6.609,0.621 10.16,0.621 z m 74.96,-160 c 3.95,0 7.27,1.41 10,4.219 2.81,2.808 4.3,6.172 4.53,10.16 v 126.871 c 0,3.629 -1.48,6.641 -4.37,9.059 -2.82,2.5 -6.21,3.75 -10.16,3.75 h -2.81 l -0.16,2.351 h 45.94 c 4.69,0 9.76,0.391 15.31,1.25 5.51,0.93 9.42,1.867 11.72,2.809 v -28.59 h -2.34 v 4.058 c 0,3.633 -1.25,6.762 -3.75,9.372 -2.42,2.582 -5.39,3.949 -8.91,4.07 h -25.78 v -70 h 42.97 c 3.01,0.07 5.54,1.172 7.65,3.281 2.19,2.18 3.29,4.84 3.29,7.969 v 3.281 h 2.18 V 386.84 h -2.18 v 3.281 c 0,3 -1.06,5.539 -3.13,7.649 -1.99,2.191 -4.49,3.32 -7.5,3.441 h -43.28 v -67.66 h 48.28 c 11.13,0 19.61,2.5 25.47,7.5 5.94,5 10.86,12.39 14.84,22.187 h 2.19 l -13.12,-36.718 h -109.85 v 2.191 z" /><path
         id="path44"
         style="fill:#000000;fill-opacity:1;fill-rule:nonzero;stroke:none"
         d="m 1128.2,439.961 c -4.57,5.629 -6.87,11.168 -6.87,16.719 0,5.511 1.33,10.23 3.9,14.218 2.5,4.063 6.65,7.422 12.35,10.153 5.7,2.82 12.22,4.219 19.53,4.219 h 92.81 c 4.69,0 9.85,0.468 15.47,1.41 5.7,0.941 9.73,1.871 12.03,2.808 v -28.59 l -2.34,0.153 v 3.91 c 0,3.629 -1.33,6.758 -3.91,9.379 -2.5,2.57 -5.55,3.98 -9.06,4.211 h -42.97 V 342.77 c 0.08,-5.43 2.5,-9.489 7.19,-12.18 2.26,-1.25 4.72,-1.879 7.34,-1.879 h 2.97 v -2.191 h -49.69 v 2.191 h 2.97 c 3.95,0 7.27,1.328 10,4.059 2.81,2.82 4.3,6.101 4.53,9.851 v 135.93 h -47.34 c -12.11,0 -20.86,-3.86 -26.41,-11.563 -2.81,-3.976 -4.22,-8.078 -4.22,-12.34 0,-4.296 1.22,-8.75 3.6,-13.437 z" /><path
         id="path46"
         style="fill:#000000;fill-opacity:1;fill-rule:nonzero;stroke:none"
         d="m 1518.63,406.051 c 0,-25.93 -7.03,-46.211 -21.09,-60.781 -13.99,-14.61 -33.71,-21.872 -59.22,-21.872 -17.19,0 -32.73,3.59 -46.56,10.782 -13.75,7.269 -24.49,17.191 -32.19,29.691 -7.62,12.578 -11.41,26.598 -11.41,42.027 0,15.512 3.75,29.532 11.25,42.032 7.58,12.582 18.01,22.422 31.25,29.531 13.32,7.187 28.17,10.777 44.54,10.777 10.31,0 20.78,-1.398 31.4,-4.218 10.63,-2.731 19.45,-6.399 26.56,-11.09 l 4.54,-32.032 h -2.04 c -3.12,12.692 -10.46,22.653 -22.03,29.84 -11.48,7.192 -24.22,10.782 -38.28,10.782 -20,0 -36.72,-7.141 -50.15,-21.399 -13.36,-14.301 -20,-32.269 -20,-53.91 0,-21.563 6.87,-39.652 20.62,-54.223 13.83,-14.609 31.95,-21.867 54.38,-21.867 22.38,0 40.62,7.219 54.68,21.719 14.14,14.57 21.25,34.449 21.25,59.68 h 2.19 c 0.2,-1.872 0.31,-3.711 0.31,-5.469 z" /><path
         id="path48"
         style="fill:#000000;fill-opacity:1;fill-rule:nonzero;stroke:none"
         d="m 1547.27,492.77 c 9.76,4.07 19.21,6.101 28.28,6.101 7.57,0 15.39,-2.781 23.43,-8.281 4.38,-3.051 9.26,-8.91 14.69,-17.66 3.63,-6.051 8.21,-17.032 13.75,-32.969 l 27.66,-78.281 c 6.33,-17.5 12.81,-31.41 19.37,-41.719 6.57,-10.391 12.54,-18.199 17.97,-23.441 5.51,-5.192 11.17,-8.821 17.03,-10.93 5.94,-2.192 10.82,-3.289 14.69,-3.289 3.83,0 7.27,0.32 10.31,0.937 l 0.16,-2.187 c -7.19,-2.5 -14.3,-3.75 -21.25,-3.75 -6.99,0 -13.98,1.84 -20.94,5.469 -6.87,3.558 -13.36,8.441 -19.37,14.691 -13.05,13.238 -24.07,33.277 -33.13,60.16 l -8.75,25.777 h -62.19 l -15.62,-40.308 c -0.74,-1.879 -1.09,-3.711 -1.09,-5.469 0,-1.801 0.78,-3.711 2.34,-5.781 1.56,-2.11 3.98,-3.129 7.34,-3.129 h 1.88 v -2.191 h -45.47 v 2.191 h 2.03 c 3.52,0 7.03,1.09 10.47,3.277 3.52,2.274 6.44,5.633 8.75,10 l 56.09,134.532 c -8.12,11.64 -18.24,17.5 -30.31,17.5 -5.43,0 -11.25,-1.168 -17.5,-3.43 z m 24.21,-102.649 h 57.35 l -17.81,52.809 c -3.56,10.082 -6.72,18.05 -9.54,23.91 z" /><path
         id="path50"
         style="fill:#000000;fill-opacity:1;fill-rule:nonzero;stroke:none"
         d="m 1892.34,288.09 c -6.36,-1.641 -12.03,-2.5 -17.03,-2.5 -4.92,0 -9.22,0.308 -12.97,0.93 -3.75,0.55 -7.81,1.679 -12.18,3.441 -4.3,1.801 -8.28,3.828 -12.04,6.09 -3.74,2.187 -7.5,4.969 -11.24,8.289 -7,5.621 -13.36,11.68 -19.07,18.121 -5.62,6.449 -16.52,18.629 -32.65,36.559 -16.18,17.89 -26.88,29.769 -32.19,35.628 -5.31,5.942 -9.38,9.063 -12.19,9.372 v 2.191 c 8.75,0 14.57,0.199 17.5,0.629 2.89,0.39 6.02,1.09 9.38,2.031 3.32,0.93 6.13,2.219 8.43,3.899 8.83,5.82 13.29,15.351 13.29,28.601 0,11.008 -2.47,19.879 -7.35,26.559 -4.92,6.64 -11.8,10.039 -20.62,10.16 h -28.13 v -135 c 0,-3.75 1.41,-7.11 4.22,-10 2.81,-2.93 6.25,-4.379 10.31,-4.379 h 2.66 l 0.31,-2.191 h -49.69 v 2.191 h 2.97 c 3.75,0 7.03,1.328 9.85,4.059 2.89,2.82 4.45,6.14 4.68,10 v 125.781 c -0.23,3.949 -1.71,7.269 -4.53,10 -2.73,2.82 -6.05,4.219 -10,4.219 h -2.97 v 2.351 h 61.1 c 13.32,0 23.98,-3.75 32.03,-11.25 8.12,-7.5 12.19,-17.422 12.19,-29.691 0,-12.301 -3.71,-22.891 -11.1,-31.719 -7.42,-8.871 -16.48,-13.281 -27.19,-13.281 0,0 -0.07,0 -0.15,0 5.08,-5.43 10.86,-11.719 17.34,-18.91 26.14,-28.86 42.89,-46.989 50.31,-54.372 7.39,-7.378 13.91,-13.476 19.54,-18.277 5.7,-4.769 10.78,-8.281 15.15,-10.473 8.95,-4.878 17.81,-7.347 26.57,-7.347 1.75,0 3.59,0.16 5.46,0.469 z" /><path
         id="path52"
         style="fill:#000000;fill-opacity:1;fill-rule:nonzero;stroke:none"
         d="m 1841.91,328.711 c 3.95,0 7.27,1.41 10,4.219 2.82,2.808 4.3,6.172 4.54,10.16 v 126.871 c 0,3.629 -1.49,6.641 -4.38,9.059 -2.81,2.5 -6.21,3.75 -10.16,3.75 h -2.81 l -0.15,2.351 h 45.93 c 4.69,0 9.77,0.391 15.32,1.25 5.5,0.93 9.41,1.867 11.71,2.809 v -28.59 h -2.34 v 4.058 c 0,3.633 -1.25,6.762 -3.75,9.372 -2.42,2.582 -5.39,3.949 -8.91,4.07 h -25.78 v -70 h 42.97 c 3.01,0.07 5.55,1.172 7.66,3.281 2.19,2.18 3.28,4.84 3.28,7.969 v 3.281 h 2.19 V 386.84 h -2.19 v 3.281 c 0,3 -1.06,5.539 -3.13,7.649 -1.99,2.191 -4.49,3.32 -7.5,3.441 h -43.28 v -67.66 h 48.28 c 11.14,0 19.61,2.5 25.47,7.5 5.94,5 10.86,12.39 14.85,22.187 h 2.18 l -13.12,-36.718 h -109.84 v 2.191 z" /><path
         id="path54"
         style="fill:#000000;fill-opacity:1;fill-rule:nonzero;stroke:none"
         d="m 2046.68,386.84 c -7.93,-10.32 -11.88,-21.41 -11.88,-33.289 0,-14.289 5.98,-25.313 17.97,-33.121 6.88,-4.692 14.73,-7.032 23.6,-7.032 8.83,0 16.48,1.723 22.97,5.153 12.26,6.371 19.14,17.039 20.62,32.039 0.2,1.012 0.31,2.07 0.31,3.121 0,5.629 -1.56,11.641 -4.68,18.129 -3.13,6.441 -8.13,12.422 -15,17.961 l -40.79,32.039 c -8.98,6.949 -13.43,15.969 -13.43,27.031 0,11.008 3.51,20.348 10.62,27.969 7.07,7.57 16.64,11.398 28.75,11.398 6.02,0 12.66,-0.738 19.85,-2.187 h 9.06 l 0.31,-27.961 h -2.19 c -0.23,7.262 -2.89,13 -7.97,17.18 -5,4.14 -11.32,6.25 -18.9,6.25 -7.62,0 -14.02,-2.571 -19.22,-7.649 -5.12,-5 -7.66,-11.531 -7.66,-19.531 0,-7.93 3.32,-14.5 10,-19.692 l 41.88,-33.128 c 16.64,-13.122 25,-29.02 25,-47.649 0,-13.871 -5.55,-25.781 -16.56,-35.781 -9.5,-8.52 -22.19,-12.82 -38.13,-12.82 -9.61,0 -18.2,1.839 -25.78,5.468 -14.18,6.563 -22.73,17.852 -25.63,33.91 -0.42,2.383 -0.62,5.391 -0.62,9.063 0,3.75 1.02,8.789 3.12,15.16 2.08,6.438 6.14,12.969 12.19,19.527 z" /><path
         id="path56"
         style="fill:#000000;fill-opacity:1;fill-rule:nonzero;stroke:none"
         d="m 2160.59,328.711 c 3.94,0 7.26,1.41 10,4.219 2.81,2.808 4.29,6.172 4.53,10.16 v 126.871 c 0,3.629 -1.49,6.641 -4.38,9.059 -2.81,2.5 -6.21,3.75 -10.15,3.75 h -2.82 l -0.15,2.351 h 45.93 c 4.69,0 9.77,0.391 15.32,1.25 5.51,0.93 9.41,1.867 11.72,2.809 v -28.59 h -2.35 v 4.058 c 0,3.633 -1.25,6.762 -3.75,9.372 -2.42,2.582 -5.39,3.949 -8.9,4.07 h -25.79 v -70 h 42.97 c 3.01,0.07 5.55,1.172 7.66,3.281 2.19,2.18 3.28,4.84 3.28,7.969 v 3.281 h 2.19 V 386.84 h -2.19 v 3.281 c 0,3 -1.05,5.539 -3.12,7.649 -2,2.191 -4.5,3.32 -7.5,3.441 h -43.29 v -67.66 h 48.29 c 11.13,0 19.61,2.5 25.46,7.5 5.94,5 10.86,12.39 14.85,22.187 h 2.19 l -13.13,-36.718 h -109.84 v 2.191 z" /><path
         id="path58"
         style="fill:#000000;fill-opacity:1;fill-rule:nonzero;stroke:none"
         d="m 2494.34,288.09 c -6.37,-1.641 -12.04,-2.5 -17.04,-2.5 -4.92,0 -9.21,0.308 -12.96,0.93 -3.75,0.55 -7.82,1.679 -12.19,3.441 -4.3,1.801 -8.28,3.828 -12.03,6.09 -3.75,2.187 -7.5,4.969 -11.25,8.289 -6.99,5.621 -13.36,11.68 -19.07,18.121 -5.62,6.449 -16.52,18.629 -32.65,36.559 -16.17,17.89 -26.88,29.769 -32.19,35.628 -5.31,5.942 -9.37,9.063 -12.19,9.372 v 2.191 c 8.75,0 14.57,0.199 17.5,0.629 2.89,0.39 6.02,1.09 9.38,2.031 3.32,0.93 6.13,2.219 8.44,3.899 8.82,5.82 13.28,15.351 13.28,28.601 0,11.008 -2.46,19.879 -7.35,26.559 -4.92,6.64 -11.79,10.039 -20.62,10.16 h -28.13 v -135 c 0,-3.75 1.41,-7.11 4.22,-10 2.81,-2.93 6.25,-4.379 10.31,-4.379 h 2.66 l 0.31,-2.191 h -49.68 v 2.191 h 2.96 c 3.75,0 7.04,1.328 9.85,4.059 2.89,2.82 4.45,6.14 4.69,10 v 125.781 c -0.24,3.949 -1.72,7.269 -4.54,10 -2.73,2.82 -6.05,4.219 -10,4.219 h -2.96 v 2.351 h 61.09 c 13.32,0 23.98,-3.75 32.03,-11.25 8.13,-7.5 12.19,-17.422 12.19,-29.691 0,-12.301 -3.71,-22.891 -11.1,-31.719 -7.42,-8.871 -16.48,-13.281 -27.18,-13.281 0,0 -0.08,0 -0.16,0 5.08,-5.43 10.86,-11.719 17.34,-18.91 26.14,-28.86 42.9,-46.989 50.32,-54.372 7.38,-7.378 13.9,-13.476 19.53,-18.277 5.7,-4.769 10.78,-8.281 15.15,-10.473 8.95,-4.878 17.82,-7.347 26.57,-7.347 1.75,0 3.59,0.16 5.47,0.469 z" /><path
         id="path60"
         style="fill:#000000;fill-opacity:1;fill-rule:nonzero;stroke:none"
         d="m 2593.95,529.488 c 5.19,3.524 11.32,6.25 18.43,8.133 7.07,1.949 12.82,2.969 17.19,2.969 4.38,0 7.19,0 8.44,0 v -2.192 c -7.19,-0.308 -13.87,-1.718 -20,-4.218 -6.17,-2.5 -11.25,-5.391 -15.31,-8.59 -3.99,-3.25 -7.9,-7.578 -11.72,-12.969 -3.75,-5.32 -6.68,-9.922 -8.75,-13.75 -2,-3.75 -4.34,-8.562 -7.03,-14.383 L 2512.23,346.68 c -5.63,-12.192 -8.44,-19.961 -8.44,-23.282 h -2.03 l -63.6,145.153 c -2.18,4.89 -5.15,8.48 -8.9,10.789 -3.67,2.262 -7.35,3.43 -11.1,3.43 h -1.71 v 2.351 h 50.93 v -2.351 h -2.03 c -4.61,0 -7.62,-2.11 -9.06,-6.25 -0.31,-0.93 -0.47,-2.032 -0.47,-3.282 0,-1.168 0.35,-2.617 1.09,-4.367 l 47.35,-118.75 56.25,134.367 c 8.83,20.942 20,35.942 33.44,45 z" /><path
         id="path62"
         style="fill:#000000;fill-opacity:1;fill-rule:nonzero;stroke:none"
         d="m 2663.01,328.711 h 2.97 v -2.191 h -49.53 v 2.191 h 2.96 c 3.83,0 7.19,1.41 10,4.219 2.89,2.808 4.38,6.172 4.38,10.16 v 135.93 l -24.22,-1.399 c -15.23,-0.941 -22.81,-6.492 -22.81,-16.57 0,-4.063 1.33,-7.571 3.9,-10.461 2.7,-2.82 6.92,-4.379 12.66,-4.692 v -1.41 c -2.19,-0.429 -4.34,-0.617 -6.41,-0.617 -6.68,0 -11.64,2.649 -15,7.969 -1.87,3 -2.81,6.32 -2.81,10 0,12.808 9.77,20.23 29.22,22.34 0.08,0 7.58,0.468 22.5,1.41 14.88,1.012 26.6,2.379 35.16,4.058 l 0.47,-2.347 c -6.49,-1.051 -11.06,-3.242 -13.75,-6.563 -2.74,-3.238 -4.07,-7.808 -4.07,-13.75 V 343.09 c 0.08,-3.988 1.57,-7.352 4.38,-10.16 2.81,-2.809 6.13,-4.219 10,-4.219 z" /><path
         id="path64"
         style="fill:#000000;fill-opacity:1;fill-rule:nonzero;stroke:none"
         d="m 2855.39,406.051 c 0,-25.93 -7.03,-46.211 -21.09,-60.781 -13.99,-14.61 -33.71,-21.872 -59.22,-21.872 -17.19,0 -32.74,3.59 -46.56,10.782 -13.75,7.269 -24.5,17.191 -32.19,29.691 -7.62,12.578 -11.41,26.598 -11.41,42.027 0,15.512 3.75,29.532 11.25,42.032 7.58,12.582 18.01,22.422 31.25,29.531 13.32,7.187 28.17,10.777 44.53,10.777 10.32,0 20.78,-1.398 31.41,-4.218 10.62,-2.731 19.45,-6.399 26.56,-11.09 l 4.53,-32.032 h -2.03 c -3.12,12.692 -10.47,22.653 -22.03,29.84 -11.48,7.192 -24.22,10.782 -38.28,10.782 -20,0 -36.72,-7.141 -50.16,-21.399 -13.36,-14.301 -20,-32.269 -20,-53.91 0,-21.563 6.88,-39.652 20.63,-54.223 13.83,-14.609 31.95,-21.867 54.37,-21.867 22.39,0 40.63,7.219 54.69,21.719 14.14,14.57 21.25,34.449 21.25,59.68 h 2.19 c 0.19,-1.872 0.31,-3.711 0.31,-5.469 z" /><path
         id="path66"
         style="fill:#000000;fill-opacity:1;fill-rule:nonzero;stroke:none"
         d="m 2877.23,328.711 c 3.94,0 7.26,1.41 10,4.219 2.81,2.808 4.29,6.172 4.53,10.16 v 126.871 c 0,3.629 -1.49,6.641 -4.38,9.059 -2.81,2.5 -6.21,3.75 -10.15,3.75 h -2.82 l -0.15,2.351 h 45.94 c 4.68,0 9.76,0.391 15.31,1.25 5.51,0.93 9.41,1.867 11.72,2.809 v -28.59 h -2.35 v 4.058 c 0,3.633 -1.25,6.762 -3.75,9.372 -2.42,2.582 -5.39,3.949 -8.9,4.07 h -25.78 v -70 h 42.96 c 3.01,0.07 5.55,1.172 7.66,3.281 2.19,2.18 3.28,4.84 3.28,7.969 v 3.281 h 2.19 V 386.84 h -2.19 v 3.281 c 0,3 -1.05,5.539 -3.12,7.649 -2,2.191 -4.5,3.32 -7.5,3.441 h -43.28 v -67.66 h 48.28 c 11.13,0 19.61,2.5 25.47,7.5 5.93,5 10.85,12.39 14.84,22.187 h 2.19 L 2984.1,326.52 h -109.84 v 2.191 z" /></g></g></svg>